<svg width="52" height="48" viewBox="0 0 52 48" fill="none" xmlns="http://www.w3.org/2000/svg">
<g clip-path="url(#clip0)">
<path d="M52.0001 37.5972C51.5939 38.4554 50.8897 38.7313 49.9485 38.7073C48.1556 38.662 46.36 38.7073 44.5657 38.6833C44.1476 38.6676 43.7398 38.8135 43.4296 39.0898C40.2121 41.7667 36.9865 44.4351 33.7527 47.0951C31.6984 48.7916 28.7924 48.004 28.0815 45.5612C27.8106 44.6097 27.9461 43.8194 28.5338 42.604C27.9745 43.0625 27.4233 43.5369 26.8546 43.9793C25.2567 45.2414 23.0534 44.9788 21.8726 43.3943C21.461 42.8391 21.2315 42.1734 21.2148 41.4863C21.1981 40.7992 21.395 40.1235 21.7792 39.5495C21.8591 39.4296 21.9444 39.3123 22.05 39.1631C19.9822 39.9027 18.5454 39.6135 17.5041 38.2742C16.548 37.0455 16.5819 35.5222 17.6571 33.9723C17.458 34.0536 17.3362 34.1056 17.2156 34.1522C16.465 34.4774 15.621 34.5277 14.836 34.2941C14.051 34.0604 13.3768 33.5583 12.9351 32.8782C12.491 32.2077 12.3084 31.4016 12.4212 30.6089C12.534 29.8162 12.9344 29.0905 13.5486 28.5657C15.1736 27.1797 16.8311 25.8351 18.4858 24.4851C18.6461 24.3725 18.8387 24.3132 19.0356 24.3158C22.1665 24.3052 25.2978 24.3052 28.4295 24.3158C28.6714 24.3324 28.8997 24.4325 29.0741 24.5984C30.263 25.7365 31.4168 26.9105 32.6044 28.0486C34.4758 29.8411 36.7089 30.4274 39.1911 29.6625C41.6137 28.9162 43.1019 27.2277 43.6097 24.7703C43.9821 22.9632 43.5528 21.3053 42.4234 19.6995H43.0071C45.3417 19.6995 47.679 19.7288 50.0135 19.6848C50.9479 19.6675 51.6142 19.9514 52.0015 20.8016L52.0001 37.5972Z" fill="white"/>
<path d="M-0.000441551 17.7071C0.388204 16.8596 1.05445 16.581 1.98883 16.5904C5.69518 16.625 9.40154 16.601 13.1079 16.6104C13.2567 16.6195 13.4056 16.5957 13.5439 16.5408C13.6821 16.486 13.8061 16.4013 13.9069 16.2932C15.7187 14.4448 17.9314 13.5679 20.5423 13.5985C23.4537 13.6318 26.3652 13.6158 29.2753 13.5985C31.0208 13.5905 32.5253 14.1542 33.7671 15.3616C35.7387 17.2834 37.7185 19.1997 39.6509 21.1601C41.5833 23.1204 40.6855 26.2375 38.0692 26.8466C36.7706 27.1478 35.6317 26.7906 34.6757 25.8617C33.3567 24.569 32.031 23.2817 30.731 21.9703C30.5184 21.7462 30.2592 21.5698 29.9711 21.4532C29.6829 21.3366 29.3726 21.2825 29.0613 21.2947C25.4741 21.3107 21.8842 21.2947 18.2971 21.3133C18.0203 21.3223 17.7537 21.418 17.536 21.5865C15.7323 23.0525 13.9488 24.5304 12.1586 26.0057C8.29925 29.1881 9.22279 35.0158 13.8825 36.9082C14.0315 36.962 14.1554 37.0678 14.2305 37.2054C14.5122 37.9797 14.7654 38.766 15.0308 39.5589C14.0247 39.6762 13.0646 39.6255 12.2615 38.714C11.3773 37.7105 10.3738 36.8056 9.39612 35.8834C9.2037 35.7133 8.95715 35.6144 8.69872 35.6035C6.48195 35.5822 4.26383 35.5622 2.04706 35.6035C1.09914 35.6222 0.408516 35.349 -0.00585938 34.4934L-0.000441551 17.7071Z" fill="white"/>
<path d="M14.9052 3.39963C15.2492 3.58487 15.6541 3.70747 15.9263 3.96601C17.2804 5.24804 18.5953 6.56071 19.9129 7.87339C20.5738 8.53173 20.5765 9.45527 19.9482 10.0536C19.3198 10.652 18.422 10.6253 17.7679 9.98967C16.4336 8.69165 15.107 7.38608 13.7881 6.07296C13.3019 5.59053 13.1706 5.01749 13.4414 4.38047C13.6784 3.82342 14.22 3.49291 14.9052 3.39963Z" fill="white"/>
<path d="M38.7886 5.05213C38.5991 5.39063 38.4731 5.79043 38.2091 6.05963C36.8942 7.3923 35.5522 8.71164 34.2021 10.0163C33.5548 10.6427 32.6191 10.6267 32.0219 10.0256C31.4247 9.42461 31.4382 8.52107 32.0801 7.88139C33.3991 6.56915 34.7248 5.26314 36.0573 3.96334C36.2706 3.73332 36.5528 3.57612 36.863 3.51454C37.1732 3.45296 37.4953 3.4902 37.7825 3.62085C38.3445 3.84207 38.6993 4.39913 38.7886 5.05213Z" fill="white"/>
<path d="M24.4763 3.93138C24.4763 3.15043 24.4763 2.36816 24.4763 1.58721C24.4844 0.654346 25.1114 0.00267355 25.9916 8.21262e-06C26.8718 -0.00265712 27.5191 0.643686 27.5191 1.57389C27.5272 3.17309 27.5272 4.76873 27.5191 6.36083C27.5191 7.2857 26.865 7.93337 25.9808 7.92538C25.1222 7.91738 24.4912 7.27237 24.4776 6.37415C24.4695 5.5599 24.4763 4.74564 24.4763 3.93138Z" fill="white"/>
</g>
<defs>
<clipPath id="clip0">
<rect width="52" height="48" fill="white"/>
</clipPath>
</defs>
</svg>
